<svg width="16" height="16" viewBox="0 0 16 16" fill="none" xmlns="http://www.w3.org/2000/svg">
<path d="M14 7.33333H10.6667C9.564 7.33333 8.66667 8.23067 8.66667 9.33333V14C8.66667 15.1027 9.564 16 10.6667 16H14C15.1027 16 16 15.1027 16 14V9.33333C16 8.23067 15.1027 7.33333 14 7.33333ZM14.6667 14C14.6667 14.3673 14.368 14.6667 14 14.6667H10.6667C10.2987 14.6667 10 14.3673 10 14V9.33333C10 8.966 10.2987 8.66667 10.6667 8.66667H14C14.368 8.66667 14.6667 8.966 14.6667 9.33333V14ZM14 10.6647C14 10.8415 13.9298 11.011 13.8047 11.1361C13.6797 11.2611 13.5101 11.3313 13.3333 11.3313H11.3333C11.1565 11.3313 10.987 11.2611 10.8619 11.1361C10.7369 11.011 10.6667 10.8415 10.6667 10.6647C10.6667 10.4879 10.7369 10.3183 10.8619 10.1933C10.987 10.0682 11.1565 9.998 11.3333 9.998H13.3333C13.5101 9.998 13.6797 10.0682 13.8047 10.1933C13.9298 10.3183 14 10.4879 14 10.6647ZM14 12.6667C14 12.8435 13.9298 13.013 13.8047 13.1381C13.6797 13.2631 13.5101 13.3333 13.3333 13.3333H11.3333C11.1565 13.3333 10.987 13.2631 10.8619 13.1381C10.7369 13.013 10.6667 12.8435 10.6667 12.6667C10.6667 12.4899 10.7369 12.3203 10.8619 12.1953C10.987 12.0702 11.1565 12 11.3333 12H13.3333C13.5101 12 13.6797 12.0702 13.8047 12.1953C13.9298 12.3203 14 12.4899 14 12.6667ZM6 8C8.206 8 10 6.206 10 4C10 1.794 8.206 0 6 0C3.794 0 2 1.794 2 4C2 6.206 3.794 8 6 8ZM6 1.33333C7.47067 1.33333 8.66667 2.52933 8.66667 4C8.66667 5.47067 7.47067 6.66667 6 6.66667C4.52933 6.66667 3.33333 5.47067 3.33333 4C3.33333 2.52933 4.52933 1.33333 6 1.33333ZM7.33333 10C7.33333 10.1768 7.2631 10.3464 7.13807 10.4714C7.01305 10.5964 6.84348 10.6667 6.66667 10.6667H6C3.42733 10.6667 1.33333 12.76 1.33333 15.3333C1.33333 15.5101 1.2631 15.6797 1.13807 15.8047C1.01305 15.9298 0.843478 16 0.666667 16C0.489856 16 0.320286 15.9298 0.195262 15.8047C0.0702379 15.6797 0 15.5101 0 15.3333C0 12.0253 2.69133 9.33333 6 9.33333H6.66667C6.84348 9.33333 7.01305 9.40357 7.13807 9.5286C7.2631 9.65362 7.33333 9.82319 7.33333 10Z" fill="#202830"/>
</svg>
