<svg width="100" height="100" viewBox="0 0 100 100" fill="none" xmlns="http://www.w3.org/2000/svg">
<path d="M30.4688 80.4688V19.5312H18.75V80.4688C18.75 89.0982 25.7455 96.0938 34.375 96.0938H46.0938C37.4643 96.0938 30.4688 89.0982 30.4688 80.4688Z" fill="#CEE1F2"/>
<path d="M89.0625 15.625H10.9375C8.78008 15.625 7.03125 17.3738 7.03125 19.5312C7.03125 21.6887 8.78008 23.4375 10.9375 23.4375H14.8438V80.4688C14.8438 91.2383 23.6055 100 34.375 100H65.625C76.3945 100 85.1562 91.2383 85.1562 80.4688V23.4375H89.0625C91.2199 23.4375 92.9688 21.6887 92.9688 19.5312C92.9688 17.3738 91.2199 15.625 89.0625 15.625ZM77.3438 80.4688C77.3438 86.9305 72.0867 92.1875 65.625 92.1875H34.375C27.9133 92.1875 22.6562 86.9305 22.6562 80.4688V23.4375H77.3438V80.4688Z" fill="#0066CC"/>
<path d="M57.8125 7.8125H42.1875C40.0301 7.8125 38.2812 6.06367 38.2812 3.90625C38.2812 1.74883 40.0301 0 42.1875 0H57.8125C59.9699 0 61.7188 1.74883 61.7188 3.90625C61.7188 6.06367 59.9699 7.8125 57.8125 7.8125Z" fill="#EF4444"/>
<path d="M50 76.5625C47.8426 76.5625 46.0938 74.8137 46.0938 72.6562V42.9688C46.0938 40.8113 47.8426 39.0625 50 39.0625C52.1574 39.0625 53.9062 40.8113 53.9062 42.9688V72.6562C53.9062 74.8137 52.1574 76.5625 50 76.5625ZM65.625 76.5625C63.4676 76.5625 61.7188 74.8137 61.7188 72.6562V42.9688C61.7188 40.8113 63.4676 39.0625 65.625 39.0625C67.7824 39.0625 69.5312 40.8113 69.5312 42.9688V72.6562C69.5312 74.8137 67.7824 76.5625 65.625 76.5625ZM34.375 76.5625C32.2176 76.5625 30.4688 74.8137 30.4688 72.6562V42.9688C30.4688 40.8113 32.2176 39.0625 34.375 39.0625C36.5324 39.0625 38.2812 40.8113 38.2812 42.9688V72.6562C38.2812 74.8137 36.5324 76.5625 34.375 76.5625Z" fill="#0066CC"/>
</svg>
