<svg width="16" height="16" viewBox="0 0 16 16" fill="none" xmlns="http://www.w3.org/2000/svg">
<g clip-path="url(#clip0_904_1089)">
<path d="M14 1.33281H11.3333C10.2307 1.33281 9.33334 2.23014 9.33334 3.33281V8.51281L9.33 8.51548L7.29067 10.3908C6.8842 10.7661 6.55968 11.2213 6.33746 11.7279C6.11524 12.2345 6.00013 12.7816 5.99934 13.3348V15.3335C5.99934 15.5103 6.06957 15.6799 6.1946 15.8049C6.31962 15.9299 6.48919 16.0001 6.666 16.0001C6.84281 16.0001 7.01238 15.9299 7.13741 15.8049C7.26243 15.6799 7.33267 15.5103 7.33267 15.3335V13.3348C7.33267 12.5915 7.64667 11.8761 8.19334 11.3721L10.2253 9.50281C10.2901 9.44424 10.366 9.39917 10.4484 9.37021C10.5308 9.34125 10.6181 9.32899 10.7053 9.33414C10.7924 9.33873 10.8777 9.36054 10.9564 9.3983C11.035 9.43606 11.1053 9.48903 11.1633 9.55414C11.3827 9.79881 11.3893 10.1728 11.208 10.3901L9.464 12.2041C9.34138 12.3315 9.27439 12.5024 9.27777 12.6792C9.28115 12.856 9.35461 13.0242 9.482 13.1468C9.60939 13.2694 9.78028 13.3364 9.95706 13.333C10.1338 13.3297 10.3021 13.2562 10.4247 13.1288L12.1987 11.2815C12.4987 10.9221 12.6623 10.4683 12.6607 10.0001H14V11.8855C13.9996 12.6652 13.7262 13.4202 13.2273 14.0195L12.488 14.9068C12.432 14.9741 12.3898 15.0518 12.3637 15.1355C12.3377 15.2191 12.3285 15.3071 12.3365 15.3943C12.3444 15.4815 12.3695 15.5663 12.4103 15.6438C12.451 15.7214 12.5067 15.7901 12.574 15.8461C12.6413 15.9022 12.719 15.9444 12.8027 15.9704C12.8863 15.9964 12.9743 16.0057 13.0615 15.9977C13.1487 15.9897 13.2335 15.9646 13.311 15.9239C13.3886 15.8831 13.4573 15.8275 13.5133 15.7601L14.2527 14.8728C14.9506 14.0337 15.3331 12.9769 15.334 11.8855V9.48014C15.74 9.11414 16.0007 8.58881 16.0007 8.00014V3.33281C16.0007 2.23014 15.1027 1.33281 14 1.33281ZM12.6667 8.66614H12.1587C11.7807 8.24681 11.2353 7.98481 10.6667 8.00748V3.33281C10.6667 2.96548 10.9653 2.66614 11.3333 2.66614H12.6667V8.66614ZM14.6667 7.99948C14.6667 8.36681 14.368 8.66614 14 8.66614V2.66614C14.368 2.66614 14.6667 2.96548 14.6667 3.33281V7.99948ZM1.33334 3.92881V6.80148C1.33334 8.90148 3.04534 10.4861 4.482 11.4455C4.62911 11.5438 4.73114 11.6965 4.76565 11.87C4.80015 12.0436 4.76431 12.2237 4.666 12.3708C4.5677 12.5179 4.41498 12.6199 4.24144 12.6545C4.06791 12.689 3.88778 12.6531 3.74067 12.5548C2.03467 11.4141 2.15794e-06 9.49081 2.15794e-06 6.80148V3.92881C-0.00074058 3.32141 0.190266 2.72927 0.545798 2.23679C0.901329 1.74432 1.40324 1.37663 1.98 1.18614L5.45734 0.0334758C5.59355 -0.0111586 5.74045 -0.0111586 5.87667 0.0334758L7.88734 0.700143C8.0515 0.758604 8.18624 0.879017 8.26271 1.0356C8.33919 1.19218 8.35132 1.37248 8.2965 1.53789C8.24168 1.7033 8.12428 1.84068 7.96943 1.92059C7.81457 2.00051 7.63459 2.01662 7.468 1.96548L5.66734 1.36814L2.39934 2.45214C2.08883 2.55474 1.81863 2.75271 1.62722 3.01786C1.43581 3.283 1.33297 3.60179 1.33334 3.92881Z" fill="#2A2C33"/>
</g>
<defs>
<clipPath id="clip0_904_1089">
<rect width="16" height="16" fill="white"/>
</clipPath>
</defs>
</svg>
