<svg width="16" height="16" viewBox="0 0 16 16" fill="none" xmlns="http://www.w3.org/2000/svg">
<g clip-path="url(#clip0_904_4223)">
<path d="M9.33333 8.66667H10.6667V10H9.33333V8.66667ZM12 10H13.3333V8.66667H12V10ZM9.33333 12.6667H10.6667V11.3333H9.33333V12.6667ZM12 12.6667H13.3333V11.3333H12V12.6667ZM9.33333 4.66667H10.6667V3.33333H9.33333V4.66667ZM12 4.66667H13.3333V3.33333H12V4.66667ZM9.33333 7.33333H10.6667V6H9.33333V7.33333ZM12 7.33333H13.3333V6H12V7.33333ZM16 2V16H0V5.886C0 5.352 0.208 4.84933 0.586 4.47133L2.39067 2.66667C3.25 1.80667 4.75 1.80667 5.60933 2.66667L6.66667 3.724V2C6.66667 0.897333 7.564 0 8.66667 0H14C15.1027 0 16 0.897333 16 2ZM6.66667 5.886C6.66688 5.79833 6.64973 5.71148 6.61621 5.63046C6.58268 5.54945 6.53344 5.47588 6.47133 5.414L4.66667 3.60933C4.316 3.25867 3.684 3.25867 3.33333 3.60933L1.52867 5.414C1.4665 5.47584 1.41722 5.5494 1.38369 5.63042C1.35016 5.71144 1.33304 5.79832 1.33333 5.886V14.6667H6.66667V5.886ZM14.6667 2C14.6667 1.63267 14.3673 1.33333 14 1.33333H8.66667C8.29933 1.33333 8 1.63267 8 2V14.6667H14.6667V2ZM3.33333 10H4.66667V8.66667H3.33333V10ZM3.33333 7.33333H4.66667V6H3.33333V7.33333ZM3.33333 12.6667H4.66667V11.3333H3.33333V12.6667Z" fill="#2A2C33"/>
</g>
<defs>
<clipPath id="clip0_904_4223">
<rect width="16" height="16" fill="white"/>
</clipPath>
</defs>
</svg>
