<svg width="15" height="16" viewBox="0 0 15 16" fill="none" xmlns="http://www.w3.org/2000/svg">
<path d="M14 14.6669H13.3333V9.33292C14.0693 9.33026 14.6667 8.73159 14.6667 7.99492C14.6667 7.50425 14.3987 7.05359 13.9687 6.82025L8.23267 3.69159C8.158 3.65092 8.07733 3.62959 7.99933 3.60025V2.92025L9.756 1.83025C9.83194 1.77973 9.894 1.71097 9.93649 1.63027C9.97898 1.54956 10.0005 1.45949 9.99922 1.36829C9.99789 1.27709 9.97371 1.18768 9.92889 1.10824C9.88407 1.0288 9.82004 0.961878 9.74267 0.913588L8.10134 0.143587C7.95832 0.054205 7.79399 0.0047381 7.62539 0.000323737C7.4568 -0.00409062 7.29011 0.0367085 7.14261 0.118484C6.99511 0.20026 6.8722 0.320031 6.78663 0.465359C6.70106 0.610687 6.65596 0.776272 6.656 0.944921V3.33359H6.666V3.60025C6.588 3.63025 6.50733 3.65092 6.43267 3.69159L0.698001 6.82025C0.486607 6.93499 0.310147 7.10472 0.18728 7.31149C0.0644125 7.51827 -0.000294511 7.7544 1.00771e-06 7.99492C0.000524827 8.34881 0.141021 8.68813 0.390823 8.9388C0.640624 9.18948 0.979447 9.33116 1.33333 9.33292V14.6669H0.666668C0.489857 14.6669 0.320287 14.7372 0.195263 14.8622C0.0702389 14.9872 1.00771e-06 15.1568 1.00771e-06 15.3336C1.00771e-06 15.5104 0.0702389 15.68 0.195263 15.805C0.320287 15.93 0.489857 16.0003 0.666668 16.0003H14C14.1768 16.0003 14.3464 15.93 14.4714 15.805C14.5964 15.68 14.6667 15.5104 14.6667 15.3336C14.6667 15.1568 14.5964 14.9872 14.4714 14.8622C14.3464 14.7372 14.1768 14.6669 14 14.6669ZM6.66667 9.33359V14.6669H5.33333V9.33359H6.66667ZM8 9.33359H9.33333V14.6669H8V9.33359ZM10.6667 9.33359H12V14.6669H10.6667V9.33359ZM1.336 7.99092L7.072 4.86226C7.15188 4.81801 7.24169 4.7948 7.333 4.7948C7.42431 4.7948 7.51412 4.81801 7.594 4.86226L13.328 8.00026L1.33467 7.99159H1.336V7.99092ZM2.66667 9.33292H4V14.6663H2.66667V9.33292Z" fill="#2A2C33"/>
</svg>
