<svg width="100" height="100" viewBox="0 0 100 100" fill="none" xmlns="http://www.w3.org/2000/svg">
<path d="M58.7484 86.3115H11.8213C6.37129 86.3115 1.95312 81.8934 1.95312 76.4434V14.3369C1.95312 8.88692 6.37129 4.46875 11.8213 4.46875H58.7484C64.1984 4.46875 68.6166 8.88692 68.6166 14.3369V76.4434C68.6164 81.8934 64.1984 86.3115 58.7484 86.3115Z" fill="white"/>
<path d="M76.348 41.7576H57.7881V55.5068H76.348V63.741L98.0471 48.6322L76.348 33.5234V41.7576Z" fill="white"/>
<path d="M34.485 95.0936L8.93848 87.2956C4.78887 86.0288 1.95312 82.193 1.95312 77.8467V14.353C1.95312 7.71879 8.35098 2.97074 14.685 4.90414L40.2314 12.7022C44.3812 13.969 47.2168 17.8045 47.2168 22.151V85.6448C47.2168 92.2791 40.8191 97.027 34.485 95.0936Z" fill="#0066CC"/>
<path d="M68.6164 55.7793V76.4432C68.6164 81.8932 64.1982 86.3113 58.7482 86.3113H47.8348M11.8213 4.46875H58.7484C64.1984 4.46875 68.6166 8.88692 68.6166 14.3369V41.0686" stroke="#0066CC" stroke-width="1.5" stroke-miterlimit="10" stroke-linecap="round" stroke-linejoin="round"/>
<path d="M76.3479 41.7571H57.7879V55.5063H76.3479V63.7405L98.0469 48.6317L76.3479 33.5229V41.7571ZM34.485 95.0936L8.93848 87.2956C4.78887 86.0288 1.95312 82.193 1.95312 77.8467V14.353C1.95312 7.71879 8.35098 2.97074 14.685 4.90414L40.2314 12.7022C44.3813 13.969 47.2168 17.8045 47.2168 22.151V85.6448C47.2168 92.2791 40.8191 97.027 34.485 95.0936Z" stroke="#0066CC" stroke-width="1.5" stroke-miterlimit="10" stroke-linecap="round" stroke-linejoin="round"/>
<path d="M38.3604 45.5508V51.7164" stroke="white" stroke-width="1.5" stroke-miterlimit="10" stroke-linecap="round" stroke-linejoin="round"/>
</svg>
