<svg width="132" height="100" viewBox="0 0 132 100" fill="none" xmlns="http://www.w3.org/2000/svg">
<path d="M100.292 55.4441H59.6996C58.8782 55.4441 58.2119 54.7785 58.2119 53.9564C58.2119 53.135 58.8782 52.4688 59.6996 52.4688H100.292C101.114 52.4688 101.78 53.135 101.78 53.9564C101.78 54.7785 101.114 55.4441 100.292 55.4441Z" fill="#E0E8F6"/>
<path d="M120.455 55.4441H109.047C108.226 55.4441 107.56 54.7785 107.56 53.9564C107.56 53.135 108.226 52.4688 109.047 52.4688H120.455C121.277 52.4688 121.944 53.135 121.944 53.9564C121.944 54.7785 121.277 55.4441 120.455 55.4441Z" fill="#E0E8F6"/>
<path d="M54.5264 28.782H13.934C13.1119 28.782 12.4463 28.1158 12.4463 27.2943C12.4463 26.4723 13.1119 25.8066 13.934 25.8066H54.5264C55.3478 25.8066 56.0141 26.4723 56.0141 27.2943C56.0141 28.1158 55.3478 28.782 54.5264 28.782Z" fill="#E0E8F6"/>
<path d="M74.6904 42.1127H36.2201C35.3987 42.1127 34.7324 41.4465 34.7324 40.6244C34.7324 39.803 35.3987 39.1367 36.2201 39.1367H74.6904C75.5118 39.1367 76.1781 39.803 76.1781 40.6244C76.1781 41.4465 75.5118 42.1127 74.6904 42.1127Z" fill="#E0E8F6"/>
<path d="M27.4648 42.1127H13.934C13.1119 42.1127 12.4463 41.4465 12.4463 40.6244C12.4463 39.803 13.1119 39.1367 13.934 39.1367H27.4648C28.2862 39.1367 28.9525 39.803 28.9525 40.6244C28.9525 41.4465 28.2862 42.1127 27.4648 42.1127Z" fill="#E0E8F6"/>
<path d="M74.6903 28.782H63.2816C62.4602 28.782 61.7939 28.1158 61.7939 27.2943C61.7939 26.4723 62.4602 25.8066 63.2816 25.8066H74.6903C75.5117 25.8066 76.178 26.4723 76.178 27.2943C76.178 28.1158 75.5117 28.782 74.6903 28.782Z" fill="#E0E8F6"/>
<path d="M35.5515 17.7751C35.5515 27.5925 27.5932 35.5508 17.7758 35.5508C7.9583 35.5508 0 27.5925 0 17.7751C0 7.95829 7.9583 0 17.7758 0C27.5932 0 35.5515 7.95829 35.5515 17.7751Z" fill="#EF4444"/>
<path d="M24.707 26.2826C24.3038 26.2826 23.9005 26.1286 23.5933 25.8214L9.73089 11.959C9.11574 11.3439 9.11574 10.346 9.73089 9.73089C10.346 9.11574 11.3432 9.11574 11.9584 9.73089L25.8208 23.5932C26.4359 24.2084 26.4359 25.2062 25.8208 25.8214C25.5135 26.1286 25.1103 26.2826 24.707 26.2826Z" fill="white"/>
<path d="M10.8447 26.2826C10.4414 26.2826 10.0382 26.1286 9.73089 25.8214C9.11574 25.2062 9.11574 24.2084 9.73089 23.5932L23.5933 9.73089C24.2084 9.11574 25.2056 9.11574 25.8208 9.73089C26.4359 10.346 26.4359 11.3439 25.8208 11.959L11.9584 25.8214C11.6511 26.1286 11.2479 26.2826 10.8447 26.2826Z" fill="white"/>
<path fill-rule="evenodd" clip-rule="evenodd" d="M130.139 98.3973C129.105 99.4307 127.73 100 126.268 100C124.805 100 123.431 99.4307 122.397 98.3973L96.3308 72.3311C94.5839 70.5841 94.2679 67.9403 95.381 65.868L88.6399 59.1263C86.2198 61.2958 83.4769 63.0092 80.4672 64.2295C77.0929 65.5981 73.5273 66.2918 69.8707 66.2918C66.2134 66.2918 62.6478 65.5981 59.2735 64.2295C55.7789 62.8128 52.644 60.7312 49.9565 58.0437C47.8605 55.9477 46.1198 53.5588 44.7835 50.9424C44.3871 50.1677 44.6944 49.2191 45.4691 48.8234C46.2438 48.427 47.193 48.7342 47.5888 49.5089C48.7754 51.8312 50.3217 53.9533 52.184 55.8156C61.9367 65.5676 77.8047 65.5676 87.5567 55.8156C97.3087 46.0636 97.3087 30.195 87.5567 20.443C77.8047 10.691 61.9367 10.691 52.184 20.443C51.5689 21.0582 50.5717 21.0582 49.9565 20.443C49.3414 19.8279 49.3414 18.8307 49.9565 18.2155C52.644 15.5274 55.7789 13.4458 59.2735 12.0291C62.6478 10.6605 66.2134 9.9668 69.8707 9.9668C73.5273 9.9668 77.0929 10.6605 80.4672 12.0291C83.9618 13.4458 87.0967 15.5274 89.7842 18.2155C92.4723 20.903 94.5539 24.0379 95.9706 27.5325C97.3393 30.9068 98.0329 34.4724 98.0329 38.1296C98.0329 41.7862 97.3393 45.3518 95.9706 48.7261C94.7503 51.7358 93.037 54.4787 90.8674 56.8988L97.6091 63.6399C99.6814 62.5268 102.325 62.8427 104.072 64.5897L130.139 90.6559C131.172 91.6899 131.742 93.0642 131.742 94.5263C131.742 95.9885 131.172 97.3633 130.139 98.3973ZM128.591 94.5263C128.591 93.9062 128.349 93.3222 127.91 92.8834L101.844 66.8172C101.392 66.3647 100.796 66.1379 100.201 66.1379C99.6067 66.1379 99.0114 66.3647 98.5583 66.8172C97.6528 67.7234 97.6528 69.1974 98.5583 70.103L124.625 96.1692C125.531 97.0754 127.005 97.0754 127.91 96.1692C128.349 95.7304 128.591 95.1471 128.591 94.5263Z" fill="#0066CC"/>
</svg>
