<svg width="16" height="16" viewBox="0 0 16 16" fill="none" xmlns="http://www.w3.org/2000/svg">
<g clip-path="url(#clip0_904_4207)">
<path d="M14.6293 7.652L12.962 7.09933C12.5531 6.96533 12.1122 6.96533 11.7033 7.09933L10.0367 7.652C9.63748 7.78401 9.29012 8.03859 9.04402 8.37948C8.79793 8.72038 8.66564 9.13022 8.666 9.55067V11.6753C8.666 14.054 11.142 15.4773 11.9013 15.8567C11.9013 15.8567 12.0353 15.994 12.3333 15.994C12.6313 15.994 12.7213 15.89 12.7213 15.89C13.4907 15.5807 15.9993 14.3627 15.9993 11.6753V9.55067C15.9997 9.13022 15.8674 8.72038 15.6213 8.37948C15.3752 8.03859 15.0285 7.78401 14.6293 7.652ZM14.6667 11.6753C14.6667 13.3967 13.0507 14.292 12.3633 14.594C11.7527 14.2667 10 13.1947 10 11.6753V9.55067C10 9.26267 10.1833 9.00867 10.4573 8.918L12.1233 8.36533C12.26 8.32067 12.4087 8.32067 12.5433 8.36533L14.21 8.918C14.3431 8.962 14.4589 9.04682 14.541 9.16039C14.6231 9.27397 14.6673 9.41053 14.6673 9.55067L14.6667 11.6753ZM8.66667 6H3.33333C3.15652 6 2.98695 5.92976 2.86193 5.80474C2.7369 5.67971 2.66667 5.51014 2.66667 5.33333C2.66667 5.15652 2.7369 4.98695 2.86193 4.86193C2.98695 4.7369 3.15652 4.66667 3.33333 4.66667H8.66667C8.84348 4.66667 9.01305 4.7369 9.13807 4.86193C9.2631 4.98695 9.33333 5.15652 9.33333 5.33333C9.33333 5.51014 9.2631 5.67971 9.13807 5.80474C9.01305 5.92976 8.84348 6 8.66667 6ZM7.33333 8C7.33333 8.17681 7.2631 8.34638 7.13807 8.47141C7.01305 8.59643 6.84348 8.66667 6.66667 8.66667H3.33333C3.15652 8.66667 2.98695 8.59643 2.86193 8.47141C2.7369 8.34638 2.66667 8.17681 2.66667 8C2.66667 7.82319 2.7369 7.65362 2.86193 7.5286C2.98695 7.40357 3.15652 7.33333 3.33333 7.33333H6.66667C6.84348 7.33333 7.01305 7.40357 7.13807 7.5286C7.2631 7.65362 7.33333 7.82319 7.33333 8ZM7.33333 10.6667C7.33333 10.8435 7.2631 11.013 7.13807 11.1381C7.01305 11.2631 6.84348 11.3333 6.66667 11.3333H3.33333C3.15652 11.3333 2.98695 11.2631 2.86193 11.1381C2.7369 11.013 2.66667 10.8435 2.66667 10.6667C2.66667 10.4899 2.7369 10.3203 2.86193 10.1953C2.98695 10.0702 3.15652 10 3.33333 10H6.66667C6.84348 10 7.01305 10.0702 7.13807 10.1953C7.2631 10.3203 7.33333 10.4899 7.33333 10.6667ZM8.66667 15.3333C8.66667 15.5101 8.59643 15.6797 8.47141 15.8047C8.34638 15.9298 8.17681 16 8 16H3.33333C1.49533 16 0 14.5047 0 12.6667V4.66667C0 2.82867 1.49533 1.33333 3.33333 1.33333H3.44733C3.58572 0.943661 3.84127 0.60634 4.17892 0.367629C4.51658 0.128917 4.91982 0.000504499 5.33333 0L6.66667 0C7.536 0 8.27733 0.557333 8.55267 1.33333H8.66667C10.5047 1.33333 12 2.82867 12 4.66667V5.33333C12 5.51014 11.9298 5.67971 11.8047 5.80474C11.6797 5.92976 11.5101 6 11.3333 6C11.1565 6 10.987 5.92976 10.8619 5.80474C10.7369 5.67971 10.6667 5.51014 10.6667 5.33333V4.66667C10.6667 3.564 9.76933 2.66667 8.66667 2.66667H8C7.632 2.66667 7.33333 2.368 7.33333 2C7.33333 1.632 7.034 1.33333 6.66667 1.33333H5.33333C4.966 1.33333 4.66667 1.63267 4.66667 2C4.66667 2.36733 4.368 2.66667 4 2.66667H3.33333C2.23067 2.66667 1.33333 3.564 1.33333 4.66667V12.6667C1.33333 13.7693 2.23067 14.6667 3.33333 14.6667H8C8.17681 14.6667 8.34638 14.7369 8.47141 14.8619C8.59643 14.987 8.66667 15.1565 8.66667 15.3333Z" fill="#2A2C33"/>
</g>
<defs>
<clipPath id="clip0_904_4207">
<rect width="16" height="16" fill="white"/>
</clipPath>
</defs>
</svg>
