<svg width="16" height="16" viewBox="0 0 16 16" fill="none" xmlns="http://www.w3.org/2000/svg">
<path d="M6.86667 6.86667L8.09333 7.57333L8.76 6.42L7.53333 5.71333C7.64667 5.38 7.72 5.03333 7.72 4.66667C7.72 4.3 7.64667 3.95333 7.53333 3.62L8.76 2.91333L8.09333 1.76L6.86667 2.46667C6.39333 1.93333 5.76667 1.54667 5.04667 1.4V0H3.71333V1.4C2.99333 1.54667 2.36667 1.93333 1.89333 2.46667L0.666667 1.76L0 2.91333L1.22667 3.62C1.11333 3.95333 1.04 4.3 1.04 4.66667C1.04 5.03333 1.11333 5.38 1.22667 5.71333L0 6.42L0.666667 7.57333L1.89333 6.86667C2.36667 7.4 2.99333 7.78667 3.71333 7.93333V9.33333H5.04667V7.93333C5.76667 7.78667 6.39333 7.4 6.86667 6.86667ZM2.38 4.66667C2.38 3.56667 3.28 2.66667 4.38 2.66667C5.48 2.66667 6.38 3.56667 6.38 4.66667C6.38 5.76667 5.48 6.66667 4.38 6.66667C3.28 6.66667 2.38 5.76667 2.38 4.66667ZM14.38 11.3333C14.38 10.9667 14.3067 10.62 14.1933 10.2867L15.42 9.58L14.7533 8.42667L13.5267 9.13333C13.0533 8.6 12.4267 8.21333 11.7067 8.06667V6.66667H10.3733V8.06667C9.65333 8.21333 9.02667 8.6 8.55333 9.13333L7.32667 8.42667L6.66 9.58L7.88667 10.2867C7.77333 10.62 7.7 10.9667 7.7 11.3333C7.7 11.7 7.77333 12.0467 7.88667 12.38L6.66 13.0867L7.32667 14.24L8.55333 13.5333C9.02667 14.0667 9.65333 14.4533 10.3733 14.6V16H11.7067V14.6C12.4267 14.4533 13.0533 14.0667 13.5267 13.5333L14.7533 14.24L15.42 13.0867L14.1933 12.38C14.3067 12.0467 14.38 11.7 14.38 11.3333ZM11.0467 13.3333C9.94667 13.3333 9.04667 12.4333 9.04667 11.3333C9.04667 10.2333 9.94667 9.33333 11.0467 9.33333C12.1467 9.33333 13.0467 10.2333 13.0467 11.3333C13.0467 12.4333 12.1467 13.3333 11.0467 13.3333Z" fill="#2A2C33"/>
</svg>
